<svg xmlns="http://www.w3.org/2000/svg" viewBox="0 0 1024 1024" width="1024" height="1024">
  <defs>
    <linearGradient id="ground" x1="0" y1="0" x2="0" y2="1">
      <stop offset="0" stop-color="#192029"/><stop offset="1" stop-color="#04080d"/>
    </linearGradient>
    <radialGradient id="glow" cx="0.66" cy="0.34" r="0.55">
      <stop offset="0" stop-color="#22cde5" stop-opacity="0.22"/><stop offset="1" stop-color="#22cde5" stop-opacity="0"/>
    </radialGradient>
    <radialGradient id="bag" gradientUnits="userSpaceOnUse" cx="-70" cy="110" r="300">
      <stop offset="0" stop-color="#5ee0f2"/><stop offset="0.45" stop-color="#22cde5"/><stop offset="1" stop-color="#0080a2"/>
    </radialGradient>
    <clipPath id="clip"><path d="M924.0,512.0 L924.0,593.6 L923.9,619.7 L923.8,638.6 L923.6,654.0 L923.4,667.2 L923.1,679.0 L922.8,689.5 L922.4,699.2 L922.0,708.2 L921.5,716.5 L921.0,724.4 L920.4,731.8 L919.7,738.8 L919.1,745.5 L918.3,751.9 L917.5,758.1 L916.7,763.9 L915.8,769.6 L914.9,775.0 L913.9,780.2 L912.8,785.3 L911.7,790.2 L910.6,794.9 L909.4,799.5 L908.1,803.9 L906.8,808.2 L905.4,812.4 L904.0,816.5 L902.5,820.4 L901.0,824.2 L899.4,828.0 L897.7,831.6 L896.0,835.1 L894.2,838.5 L892.4,841.9 L890.5,845.1 L888.6,848.3 L886.6,851.3 L884.5,854.3 L882.3,857.2 L880.1,860.1 L877.9,862.8 L875.5,865.5 L873.1,868.1 L870.7,870.7 L868.1,873.1 L865.5,875.5 L862.8,877.9 L860.1,880.1 L857.2,882.3 L854.3,884.5 L851.3,886.6 L848.3,888.6 L845.1,890.5 L841.9,892.4 L838.5,894.2 L835.1,896.0 L831.6,897.7 L828.0,899.4 L824.2,901.0 L820.4,902.5 L816.5,904.0 L812.4,905.4 L808.2,906.8 L803.9,908.1 L799.5,909.4 L794.9,910.6 L790.2,911.7 L785.3,912.8 L780.2,913.9 L775.0,914.9 L769.6,915.8 L763.9,916.7 L758.1,917.5 L751.9,918.3 L745.5,919.1 L738.8,919.7 L731.8,920.4 L724.4,921.0 L716.5,921.5 L708.2,922.0 L699.2,922.4 L689.5,922.8 L679.0,923.1 L667.2,923.4 L654.0,923.6 L638.6,923.8 L619.7,923.9 L593.6,924.0 L512.0,924.0 L430.4,924.0 L404.3,923.9 L385.4,923.8 L370.0,923.6 L356.8,923.4 L345.0,923.1 L334.5,922.8 L324.8,922.4 L315.8,922.0 L307.5,921.5 L299.6,921.0 L292.2,920.4 L285.2,919.7 L278.5,919.1 L272.1,918.3 L265.9,917.5 L260.1,916.7 L254.4,915.8 L249.0,914.9 L243.8,913.9 L238.7,912.8 L233.8,911.7 L229.1,910.6 L224.5,909.4 L220.1,908.1 L215.8,906.8 L211.6,905.4 L207.5,904.0 L203.6,902.5 L199.8,901.0 L196.0,899.4 L192.4,897.7 L188.9,896.0 L185.5,894.2 L182.1,892.4 L178.9,890.5 L175.7,888.6 L172.7,886.6 L169.7,884.5 L166.8,882.3 L163.9,880.1 L161.2,877.9 L158.5,875.5 L155.9,873.1 L153.3,870.7 L150.9,868.1 L148.5,865.5 L146.1,862.8 L143.9,860.1 L141.7,857.2 L139.5,854.3 L137.4,851.3 L135.4,848.3 L133.5,845.1 L131.6,841.9 L129.8,838.5 L128.0,835.1 L126.3,831.6 L124.6,828.0 L123.0,824.2 L121.5,820.4 L120.0,816.5 L118.6,812.4 L117.2,808.2 L115.9,803.9 L114.6,799.5 L113.4,794.9 L112.3,790.2 L111.2,785.3 L110.1,780.2 L109.1,775.0 L108.2,769.6 L107.3,763.9 L106.5,758.1 L105.7,751.9 L104.9,745.5 L104.3,738.8 L103.6,731.8 L103.0,724.4 L102.5,716.5 L102.0,708.2 L101.6,699.2 L101.2,689.5 L100.9,679.0 L100.6,667.2 L100.4,654.0 L100.2,638.6 L100.1,619.7 L100.0,593.6 L100.0,512.0 L100.0,430.4 L100.1,404.3 L100.2,385.4 L100.4,370.0 L100.6,356.8 L100.9,345.0 L101.2,334.5 L101.6,324.8 L102.0,315.8 L102.5,307.5 L103.0,299.6 L103.6,292.2 L104.3,285.2 L104.9,278.5 L105.7,272.1 L106.5,265.9 L107.3,260.1 L108.2,254.4 L109.1,249.0 L110.1,243.8 L111.2,238.7 L112.3,233.8 L113.4,229.1 L114.6,224.5 L115.9,220.1 L117.2,215.8 L118.6,211.6 L120.0,207.5 L121.5,203.6 L123.0,199.8 L124.6,196.0 L126.3,192.4 L128.0,188.9 L129.8,185.5 L131.6,182.1 L133.5,178.9 L135.4,175.7 L137.4,172.7 L139.5,169.7 L141.7,166.8 L143.9,163.9 L146.1,161.2 L148.5,158.5 L150.9,155.9 L153.3,153.3 L155.9,150.9 L158.5,148.5 L161.2,146.1 L163.9,143.9 L166.8,141.7 L169.7,139.5 L172.7,137.4 L175.7,135.4 L178.9,133.5 L182.1,131.6 L185.5,129.8 L188.9,128.0 L192.4,126.3 L196.0,124.6 L199.8,123.0 L203.6,121.5 L207.5,120.0 L211.6,118.6 L215.8,117.2 L220.1,115.9 L224.5,114.6 L229.1,113.4 L233.8,112.3 L238.7,111.2 L243.8,110.1 L249.0,109.1 L254.4,108.2 L260.1,107.3 L265.9,106.5 L272.1,105.7 L278.5,104.9 L285.2,104.3 L292.2,103.6 L299.6,103.0 L307.5,102.5 L315.8,102.0 L324.8,101.6 L334.5,101.2 L345.0,100.9 L356.8,100.6 L370.0,100.4 L385.4,100.2 L404.3,100.1 L430.4,100.0 L512.0,100.0 L593.6,100.0 L619.7,100.1 L638.6,100.2 L654.0,100.4 L667.2,100.6 L679.0,100.9 L689.5,101.2 L699.2,101.6 L708.2,102.0 L716.5,102.5 L724.4,103.0 L731.8,103.6 L738.8,104.3 L745.5,104.9 L751.9,105.7 L758.1,106.5 L763.9,107.3 L769.6,108.2 L775.0,109.1 L780.2,110.1 L785.3,111.2 L790.2,112.3 L794.9,113.4 L799.5,114.6 L803.9,115.9 L808.2,117.2 L812.4,118.6 L816.5,120.0 L820.4,121.5 L824.2,123.0 L828.0,124.6 L831.6,126.3 L835.1,128.0 L838.5,129.8 L841.9,131.6 L845.1,133.5 L848.3,135.4 L851.3,137.4 L854.3,139.5 L857.2,141.7 L860.1,143.9 L862.8,146.1 L865.5,148.5 L868.1,150.9 L870.7,153.3 L873.1,155.9 L875.5,158.5 L877.9,161.2 L880.1,163.9 L882.3,166.8 L884.5,169.7 L886.6,172.7 L888.6,175.7 L890.5,178.9 L892.4,182.1 L894.2,185.5 L896.0,188.9 L897.7,192.4 L899.4,196.0 L901.0,199.8 L902.5,203.6 L904.0,207.5 L905.4,211.6 L906.8,215.8 L908.1,220.1 L909.4,224.5 L910.6,229.1 L911.7,233.8 L912.8,238.7 L913.9,243.8 L914.9,249.0 L915.8,254.4 L916.7,260.1 L917.5,265.9 L918.3,272.1 L919.1,278.5 L919.7,285.2 L920.4,292.2 L921.0,299.6 L921.5,307.5 L922.0,315.8 L922.4,324.8 L922.8,334.5 L923.1,345.0 L923.4,356.8 L923.6,370.0 L923.8,385.4 L923.9,404.3 L924.0,430.4Z"/></clipPath>
  </defs>
  <g clip-path="url(#clip)">
    <path d="M924.0,512.0 L924.0,593.6 L923.9,619.7 L923.8,638.6 L923.6,654.0 L923.4,667.2 L923.1,679.0 L922.8,689.5 L922.4,699.2 L922.0,708.2 L921.5,716.5 L921.0,724.4 L920.4,731.8 L919.7,738.8 L919.1,745.5 L918.3,751.9 L917.5,758.1 L916.7,763.9 L915.8,769.6 L914.9,775.0 L913.9,780.2 L912.8,785.3 L911.7,790.2 L910.6,794.9 L909.4,799.5 L908.1,803.9 L906.8,808.2 L905.4,812.4 L904.0,816.5 L902.5,820.4 L901.0,824.2 L899.4,828.0 L897.7,831.6 L896.0,835.1 L894.2,838.5 L892.4,841.9 L890.5,845.1 L888.6,848.3 L886.6,851.3 L884.5,854.3 L882.3,857.2 L880.1,860.1 L877.9,862.8 L875.5,865.5 L873.1,868.1 L870.7,870.7 L868.1,873.1 L865.5,875.5 L862.8,877.9 L860.1,880.1 L857.2,882.3 L854.3,884.5 L851.3,886.6 L848.3,888.6 L845.1,890.5 L841.9,892.4 L838.5,894.2 L835.1,896.0 L831.6,897.7 L828.0,899.4 L824.2,901.0 L820.4,902.5 L816.5,904.0 L812.4,905.4 L808.2,906.8 L803.9,908.1 L799.5,909.4 L794.9,910.6 L790.2,911.7 L785.3,912.8 L780.2,913.9 L775.0,914.9 L769.6,915.8 L763.9,916.7 L758.1,917.5 L751.9,918.3 L745.5,919.1 L738.8,919.7 L731.8,920.4 L724.4,921.0 L716.5,921.5 L708.2,922.0 L699.2,922.4 L689.5,922.8 L679.0,923.1 L667.2,923.4 L654.0,923.6 L638.6,923.8 L619.7,923.9 L593.6,924.0 L512.0,924.0 L430.4,924.0 L404.3,923.9 L385.4,923.8 L370.0,923.6 L356.8,923.4 L345.0,923.1 L334.5,922.8 L324.8,922.4 L315.8,922.0 L307.5,921.5 L299.6,921.0 L292.2,920.4 L285.2,919.7 L278.5,919.1 L272.1,918.3 L265.9,917.5 L260.1,916.7 L254.4,915.8 L249.0,914.9 L243.8,913.9 L238.7,912.8 L233.8,911.7 L229.1,910.6 L224.5,909.4 L220.1,908.1 L215.8,906.8 L211.6,905.4 L207.5,904.0 L203.6,902.5 L199.8,901.0 L196.0,899.4 L192.4,897.7 L188.9,896.0 L185.5,894.2 L182.1,892.4 L178.9,890.5 L175.7,888.6 L172.7,886.6 L169.7,884.5 L166.8,882.3 L163.9,880.1 L161.2,877.9 L158.5,875.5 L155.9,873.1 L153.3,870.7 L150.9,868.1 L148.5,865.5 L146.1,862.8 L143.9,860.1 L141.7,857.2 L139.5,854.3 L137.4,851.3 L135.4,848.3 L133.5,845.1 L131.6,841.9 L129.8,838.5 L128.0,835.1 L126.3,831.6 L124.6,828.0 L123.0,824.2 L121.5,820.4 L120.0,816.5 L118.6,812.4 L117.2,808.2 L115.9,803.9 L114.6,799.5 L113.4,794.9 L112.3,790.2 L111.2,785.3 L110.1,780.2 L109.1,775.0 L108.2,769.6 L107.3,763.9 L106.5,758.1 L105.7,751.9 L104.9,745.5 L104.3,738.8 L103.6,731.8 L103.0,724.4 L102.5,716.5 L102.0,708.2 L101.6,699.2 L101.2,689.5 L100.9,679.0 L100.6,667.2 L100.4,654.0 L100.2,638.6 L100.1,619.7 L100.0,593.6 L100.0,512.0 L100.0,430.4 L100.1,404.3 L100.2,385.4 L100.4,370.0 L100.6,356.8 L100.9,345.0 L101.2,334.5 L101.6,324.8 L102.0,315.8 L102.5,307.5 L103.0,299.6 L103.6,292.2 L104.3,285.2 L104.9,278.5 L105.7,272.1 L106.5,265.9 L107.3,260.1 L108.2,254.4 L109.1,249.0 L110.1,243.8 L111.2,238.7 L112.3,233.8 L113.4,229.1 L114.6,224.5 L115.9,220.1 L117.2,215.8 L118.6,211.6 L120.0,207.5 L121.5,203.6 L123.0,199.8 L124.6,196.0 L126.3,192.4 L128.0,188.9 L129.8,185.5 L131.6,182.1 L133.5,178.9 L135.4,175.7 L137.4,172.7 L139.5,169.7 L141.7,166.8 L143.9,163.9 L146.1,161.2 L148.5,158.5 L150.9,155.9 L153.3,153.3 L155.9,150.9 L158.5,148.5 L161.2,146.1 L163.9,143.9 L166.8,141.7 L169.7,139.5 L172.7,137.4 L175.7,135.4 L178.9,133.5 L182.1,131.6 L185.5,129.8 L188.9,128.0 L192.4,126.3 L196.0,124.6 L199.8,123.0 L203.6,121.5 L207.5,120.0 L211.6,118.6 L215.8,117.2 L220.1,115.9 L224.5,114.6 L229.1,113.4 L233.8,112.3 L238.7,111.2 L243.8,110.1 L249.0,109.1 L254.4,108.2 L260.1,107.3 L265.9,106.5 L272.1,105.7 L278.5,104.9 L285.2,104.3 L292.2,103.6 L299.6,103.0 L307.5,102.5 L315.8,102.0 L324.8,101.6 L334.5,101.2 L345.0,100.9 L356.8,100.6 L370.0,100.4 L385.4,100.2 L404.3,100.1 L430.4,100.0 L512.0,100.0 L593.6,100.0 L619.7,100.1 L638.6,100.2 L654.0,100.4 L667.2,100.6 L679.0,100.9 L689.5,101.2 L699.2,101.6 L708.2,102.0 L716.5,102.5 L724.4,103.0 L731.8,103.6 L738.8,104.3 L745.5,104.9 L751.9,105.7 L758.1,106.5 L763.9,107.3 L769.6,108.2 L775.0,109.1 L780.2,110.1 L785.3,111.2 L790.2,112.3 L794.9,113.4 L799.5,114.6 L803.9,115.9 L808.2,117.2 L812.4,118.6 L816.5,120.0 L820.4,121.5 L824.2,123.0 L828.0,124.6 L831.6,126.3 L835.1,128.0 L838.5,129.8 L841.9,131.6 L845.1,133.5 L848.3,135.4 L851.3,137.4 L854.3,139.5 L857.2,141.7 L860.1,143.9 L862.8,146.1 L865.5,148.5 L868.1,150.9 L870.7,153.3 L873.1,155.9 L875.5,158.5 L877.9,161.2 L880.1,163.9 L882.3,166.8 L884.5,169.7 L886.6,172.7 L888.6,175.7 L890.5,178.9 L892.4,182.1 L894.2,185.5 L896.0,188.9 L897.7,192.4 L899.4,196.0 L901.0,199.8 L902.5,203.6 L904.0,207.5 L905.4,211.6 L906.8,215.8 L908.1,220.1 L909.4,224.5 L910.6,229.1 L911.7,233.8 L912.8,238.7 L913.9,243.8 L914.9,249.0 L915.8,254.4 L916.7,260.1 L917.5,265.9 L918.3,272.1 L919.1,278.5 L919.7,285.2 L920.4,292.2 L921.0,299.6 L921.5,307.5 L922.0,315.8 L922.4,324.8 L922.8,334.5 L923.1,345.0 L923.4,356.8 L923.6,370.0 L923.8,385.4 L923.9,404.3 L924.0,430.4Z" fill="url(#ground)"/>
    <rect width="1024" height="1024" fill="url(#glow)"/>
    <g transform="translate(420 500) rotate(16)">
      <path fill="url(#bag)" d="M-48,0 C-48,66 -166,84 -166,200 C-166,300 -96,338 0,338 C96,338 166,300 166,200 C166,84 48,66 48,0 Z"/>
      <path fill="#92f0fa" d="M-54,-2 C-70,-24 -92,-46 -114,-70 C-122,-80 -114,-92 -102,-88 C-70,-78 -40,-66 -12,-44 L-12,-2 Z"/>
      <path fill="#92f0fa" d="M54,-2 C70,-24 92,-46 114,-70 C122,-80 114,-92 102,-88 C70,-78 40,-66 12,-44 L12,-2 Z"/>
      <path fill="#04080d" d="M-14,-2 L-14,-46 C-6,-56 6,-56 14,-46 L14,-2 Z"/>
      <rect x="-78" y="-16" width="156" height="30" rx="15" fill="#0b1015"/>
    </g>
    <g fill="#e7f9fd"><path d="M466.1,453.3 L467.4,446.2 L468.9,439.4 L470.5,432.7 L472.3,425.9 L474.2,419.2 L476.2,412.5 L478.4,405.9 L480.7,399.2 L483.2,392.7 L485.7,386.1 L488.4,379.6 L491.2,373.1 L494.1,366.7 L497.2,360.4 L500.3,354.1 L503.6,347.9 L507.0,341.7 L510.5,335.6 L514.1,329.6 L517.8,323.7 L521.6,317.8 L525.5,312.1 L529.5,306.4 L533.6,300.8 L537.8,295.3 L542.1,289.9 L546.5,284.6 L551.0,279.4 L555.5,274.3 L560.2,269.3 L564.9,264.5 L569.7,259.7 L574.6,255.1 L579.6,250.6 L584.6,246.3 L589.8,242.0 L594.9,237.9 L600.2,234.0 L605.5,230.1 L610.9,226.4 L616.4,222.9 L621.9,219.5 L627.5,216.3 L633.1,213.2 L638.8,210.3 L644.5,207.5 L650.3,204.9 L656.2,202.4 L662.1,200.1 L668.0,198.0 L674.0,196.1 L680.1,194.3 L686.2,192.7 L692.3,191.3 L698.5,190.1 L704.7,189.1 L711.0,188.2 L717.3,187.6 L723.6,187.1 L730.0,186.8 L735.4,186.8 L740.7,186.8 L745.9,187.0 L750.9,187.4 L755.8,187.9 L760.6,188.5 L765.2,189.2 L769.7,190.0 L774.0,191.0 L778.3,192.1 L782.3,193.2 L786.3,194.5 L790.1,195.9 L793.8,197.4 L797.3,198.9 L800.7,200.6 L804.0,202.3 L807.2,204.1 L810.2,206.0 L813.1,208.0 L815.9,210.0 L818.5,212.1 L821.0,214.3 L823.4,216.5 L825.7,218.8 L827.9,221.1 L829.9,223.5 L831.8,226.0 L833.6,228.5 L835.3,231.0 L836.9,233.6 L838.3,236.2 L839.7,238.9 L840.9,241.6 L842.0,244.3 L842.9,247.1 L843.8,249.9 L844.5,252.7 L845.2,255.6 L845.7,258.5 L846.1,261.4 L846.3,264.3 L846.5,267.2 L846.5,270.2 L846.4,273.2 L846.2,276.2 L845.9,279.2 L845.4,282.2 L844.8,285.2 L844.1,288.2 L843.2,291.2 L842.3,294.2 L841.2,297.2 L839.9,300.2 L838.5,303.2 L837.0,306.2 L835.4,309.2 L833.6,312.1 L831.7,315.0 L829.7,317.9 L828.1,319.9 L826.4,321.8 L824.7,323.7 L823.0,325.4 L821.2,327.0 L819.4,328.5 L817.6,329.9 L815.7,331.2 L813.8,332.4 L812.0,333.5 L810.1,334.5 L808.1,335.5 L806.2,336.3 L804.3,337.0 L802.3,337.7 L800.4,338.2 L798.4,338.7 L796.5,339.1 L794.5,339.4 L792.6,339.6 L790.7,339.8 L788.7,339.9 L786.8,339.8 L785.0,339.8 L783.1,339.6 L781.3,339.4 L779.5,339.1 L777.7,338.7 L776.0,338.2 L774.3,337.7 L772.7,337.2 L771.1,336.5 L769.6,335.8 L768.1,335.1 L766.7,334.3 L765.3,333.4 L764.0,332.5 L762.8,331.6 L761.6,330.6 L760.5,329.6 L759.5,328.5 L758.6,327.4 L757.7,326.2 L756.9,325.1 L756.1,323.8 L755.5,322.6 L754.9,321.3 L754.4,319.9 L753.9,318.6 L753.6,317.1 L753.3,315.7 L753.1,314.1 L753.0,312.5 L753.0,310.9 L753.1,309.2 L753.3,307.4 L753.6,305.6 L754.0,303.7 L754.6,301.7 L755.4,299.5 L736.6,292.5 L735.6,295.2 L734.6,298.2 L733.8,301.1 L733.1,304.0 L732.7,306.9 L732.4,309.8 L732.3,312.6 L732.3,315.5 L732.5,318.2 L732.9,321.0 L733.4,323.7 L734.1,326.3 L735.0,328.9 L736.0,331.4 L737.1,333.8 L738.4,336.1 L739.8,338.4 L741.3,340.6 L742.9,342.7 L744.6,344.7 L746.5,346.6 L748.4,348.4 L750.4,350.1 L752.5,351.7 L754.7,353.2 L757.0,354.6 L759.3,355.9 L761.7,357.1 L764.1,358.2 L766.7,359.3 L769.2,360.2 L771.8,361.0 L774.5,361.7 L777.2,362.3 L780.0,362.7 L782.8,363.1 L785.6,363.4 L788.4,363.5 L791.3,363.6 L794.2,363.5 L797.1,363.3 L800.1,362.9 L803.0,362.5 L806.0,361.9 L808.9,361.2 L811.9,360.4 L814.8,359.4 L817.7,358.3 L820.7,357.1 L823.6,355.7 L826.4,354.2 L829.3,352.5 L832.1,350.7 L834.8,348.8 L837.5,346.7 L840.2,344.5 L842.8,342.2 L845.4,339.7 L847.9,337.0 L850.3,334.1 L853.2,330.5 L855.8,326.9 L858.3,323.2 L860.6,319.5 L862.7,315.7 L864.7,311.8 L866.5,307.9 L868.2,304.0 L869.7,300.0 L871.0,295.9 L872.2,291.9 L873.2,287.8 L874.0,283.7 L874.7,279.6 L875.2,275.4 L875.5,271.3 L875.6,267.2 L875.6,263.0 L875.4,258.9 L875.1,254.7 L874.5,250.6 L873.8,246.5 L873.0,242.4 L871.9,238.4 L870.7,234.4 L869.4,230.4 L867.8,226.5 L866.1,222.6 L864.2,218.8 L862.2,215.0 L860.0,211.3 L857.6,207.7 L855.1,204.1 L852.4,200.6 L849.5,197.2 L846.5,193.9 L843.3,190.6 L840.0,187.5 L836.5,184.4 L832.8,181.5 L829.0,178.7 L825.1,175.9 L821.0,173.3 L816.8,170.8 L812.4,168.4 L807.9,166.2 L803.2,164.1 L798.4,162.1 L793.4,160.2 L788.3,158.4 L783.1,156.9 L777.7,155.4 L772.2,154.1 L766.6,152.9 L760.8,151.9 L754.9,151.0 L748.9,150.3 L742.7,149.8 L736.4,149.4 L730.0,149.2 L722.4,149.1 L714.9,149.3 L707.4,149.7 L699.9,150.4 L692.4,151.3 L685.0,152.4 L677.7,153.7 L670.4,155.2 L663.1,156.9 L655.9,158.9 L648.8,161.0 L641.7,163.4 L634.6,165.9 L627.7,168.6 L620.8,171.6 L613.9,174.7 L607.2,177.9 L600.5,181.4 L593.9,185.0 L587.3,188.8 L580.8,192.8 L574.4,196.9 L568.1,201.2 L561.9,205.6 L555.7,210.2 L549.7,214.9 L543.7,219.7 L537.8,224.7 L532.0,229.9 L526.3,235.2 L520.7,240.6 L515.2,246.1 L509.8,251.7 L504.5,257.5 L499.2,263.4 L494.1,269.4 L489.1,275.5 L484.2,281.7 L479.4,288.0 L474.7,294.4 L470.1,300.9 L465.6,307.5 L461.2,314.2 L457.0,321.0 L452.9,327.8 L448.8,334.8 L445.0,341.8 L441.2,348.9 L437.5,356.1 L434.0,363.3 L430.6,370.6 L427.3,378.0 L424.2,385.4 L421.2,392.9 L418.3,400.5 L415.6,408.1 L412.9,415.8 L410.5,423.5 L408.1,431.2 L405.9,438.7Z"/><circle cx="436.0" cy="446.0" r="31.0"/><circle cx="746.0" cy="296.0" r="10.0"/><path d="M459.4,454.8 L459.9,453.0 L460.2,452.1 L460.6,451.1 L461.1,450.0 L461.9,448.9 L462.8,447.7 L463.9,446.4 L465.2,445.0 L466.7,443.6 L468.5,442.2 L470.5,440.7 L472.7,439.2 L475.1,437.8 L477.7,436.3 L480.5,434.8 L483.5,433.4 L486.7,432.0 L490.1,430.6 L493.6,429.3 L497.4,427.9 L501.3,426.7 L505.3,425.5 L509.5,424.3 L513.8,423.2 L518.2,422.1 L522.8,421.0 L527.5,420.1 L532.4,419.1 L537.3,418.3 L542.3,417.4 L547.5,416.7 L552.7,415.9 L558.1,415.3 L563.5,414.6 L569.0,414.1 L574.5,413.6 L580.2,413.1 L585.9,412.7 L591.6,412.3 L597.4,412.0 L603.3,411.7 L609.2,411.5 L615.1,411.4 L621.1,411.3 L627.1,411.2 L633.2,411.2 L639.2,411.2 L645.3,411.3 L651.4,411.4 L657.5,411.6 L663.6,411.8 L669.7,412.1 L675.8,412.4 L681.9,412.7 L687.9,413.1 L694.0,413.6 L700.0,414.1 L706.0,414.6 L712.0,415.2 L717.8,415.8 L722.5,416.3 L727.1,417.0 L731.7,417.7 L736.1,418.4 L740.5,419.3 L744.7,420.1 L748.9,421.1 L753.0,422.1 L757.0,423.2 L760.8,424.3 L764.6,425.4 L768.3,426.7 L771.9,427.9 L775.4,429.3 L778.9,430.6 L782.2,432.0 L785.4,433.5 L788.5,435.0 L791.5,436.5 L794.4,438.1 L797.2,439.7 L800.0,441.3 L802.6,443.0 L805.1,444.7 L807.5,446.4 L809.9,448.2 L812.1,450.0 L814.2,451.8 L816.2,453.6 L818.1,455.4 L820.0,457.3 L821.7,459.2 L823.3,461.1 L824.9,463.0 L826.3,464.9 L827.6,466.8 L828.9,468.8 L830.0,470.7 L831.1,472.7 L832.0,474.6 L832.9,476.6 L833.6,478.5 L834.3,480.5 L834.9,482.5 L835.4,484.5 L835.8,486.5 L836.2,488.4 L836.4,490.4 L836.6,492.5 L836.6,494.5 L836.6,496.5 L836.5,498.5 L836.3,500.6 L836.0,502.6 L835.6,504.7 L835.1,506.8 L834.5,508.9 L833.8,511.0 L833.0,513.1 L832.1,515.2 L831.7,516.1 L831.2,517.1 L830.6,518.0 L830.0,518.9 L829.4,519.7 L828.8,520.6 L828.1,521.4 L827.5,522.1 L826.8,522.9 L826.0,523.6 L825.3,524.2 L824.5,524.9 L823.7,525.5 L822.9,526.0 L822.0,526.6 L821.2,527.1 L820.3,527.5 L819.4,528.0 L818.5,528.4 L817.6,528.8 L816.6,529.1 L815.7,529.4 L814.7,529.7 L813.7,529.9 L812.8,530.1 L811.8,530.2 L810.8,530.4 L809.8,530.4 L808.9,530.5 L807.9,530.5 L806.9,530.5 L805.9,530.4 L804.9,530.3 L804.0,530.2 L803.0,530.0 L802.1,529.8 L801.1,529.6 L800.2,529.3 L799.3,529.0 L798.4,528.7 L797.5,528.3 L796.7,527.9 L795.8,527.4 L795.0,526.9 L794.2,526.4 L793.4,525.8 L792.6,525.2 L791.8,524.6 L791.1,523.9 L790.4,523.1 L789.7,522.4 L789.0,521.6 L788.4,520.7 L787.8,519.8 L787.2,518.9 L786.6,517.9 L786.0,516.8 L785.5,515.7 L785.0,514.5 L784.5,513.1 L767.5,518.9 L768.0,520.6 L768.7,522.5 L769.4,524.3 L770.2,526.1 L771.1,527.8 L772.0,529.5 L773.0,531.1 L774.1,532.6 L775.2,534.1 L776.4,535.6 L777.6,536.9 L778.9,538.2 L780.2,539.5 L781.5,540.6 L782.9,541.8 L784.4,542.8 L785.9,543.8 L787.4,544.7 L788.9,545.5 L790.5,546.3 L792.1,547.0 L793.7,547.7 L795.3,548.2 L797.0,548.8 L798.6,549.2 L800.3,549.6 L802.0,549.9 L803.7,550.2 L805.4,550.4 L807.1,550.5 L808.9,550.6 L810.6,550.6 L812.3,550.5 L814.0,550.4 L815.7,550.2 L817.5,549.9 L819.2,549.6 L820.9,549.2 L822.6,548.8 L824.2,548.3 L825.9,547.7 L827.5,547.1 L829.2,546.4 L830.8,545.6 L832.4,544.8 L833.9,543.9 L835.5,543.0 L837.0,542.0 L838.4,540.9 L839.9,539.7 L841.3,538.5 L842.6,537.3 L844.0,535.9 L845.2,534.5 L846.5,533.1 L847.7,531.6 L848.8,530.0 L849.9,528.4 L850.9,526.7 L851.9,524.8 L853.3,521.9 L854.6,519.0 L855.7,516.0 L856.7,513.1 L857.5,510.1 L858.3,507.1 L858.9,504.1 L859.3,501.1 L859.7,498.0 L859.9,495.0 L859.9,491.9 L859.9,488.9 L859.6,485.8 L859.3,482.8 L858.8,479.8 L858.2,476.8 L857.5,473.8 L856.6,470.8 L855.6,467.9 L854.5,464.9 L853.3,462.1 L851.9,459.2 L850.4,456.4 L848.8,453.6 L847.1,450.8 L845.3,448.1 L843.3,445.4 L841.3,442.7 L839.1,440.1 L836.9,437.6 L834.5,435.0 L832.0,432.6 L829.4,430.1 L826.7,427.7 L823.9,425.4 L821.0,423.1 L818.0,420.8 L814.9,418.6 L811.7,416.5 L808.4,414.4 L805.0,412.3 L801.5,410.3 L797.9,408.4 L794.2,406.5 L790.4,404.6 L786.5,402.8 L782.5,401.1 L778.4,399.4 L774.3,397.8 L770.0,396.3 L765.6,394.8 L761.2,393.4 L756.6,392.0 L752.0,390.7 L747.3,389.4 L742.4,388.3 L737.5,387.1 L732.5,386.1 L727.4,385.1 L722.2,384.2 L716.0,383.3 L709.8,382.4 L703.6,381.5 L697.4,380.7 L691.1,379.9 L684.9,379.1 L678.6,378.4 L672.2,377.8 L665.9,377.2 L659.6,376.6 L653.2,376.1 L646.9,375.6 L640.6,375.2 L634.2,374.8 L627.9,374.5 L621.6,374.2 L615.3,374.0 L609.1,373.8 L602.8,373.7 L596.6,373.6 L590.5,373.6 L584.4,373.6 L578.3,373.7 L572.2,373.9 L566.2,374.1 L560.3,374.4 L554.4,374.7 L548.6,375.1 L542.8,375.6 L537.2,376.1 L531.5,376.7 L526.0,377.3 L520.5,378.0 L515.1,378.8 L509.8,379.7 L504.6,380.6 L499.4,381.6 L494.4,382.7 L489.4,383.8 L484.6,385.1 L479.8,386.4 L475.1,387.9 L470.5,389.4 L466.1,391.0 L461.7,392.7 L457.4,394.6 L453.2,396.6 L449.2,398.7 L445.2,400.9 L441.4,403.3 L437.7,405.8 L434.1,408.6 L430.7,411.5 L427.4,414.6 L424.3,418.0 L421.4,421.6 L418.7,425.4 L416.3,429.4 L414.1,433.7 L412.6,437.2Z"/><circle cx="436.0" cy="446.0" r="25.0"/><circle cx="776.0" cy="516.0" r="9.0"/><path d="M445.0,465.0 L443.8,465.3 L441.4,465.9 L439.9,466.0 L439.2,465.9 L439.3,465.8 L439.8,465.8 L440.8,465.9 L442.1,466.2 L443.8,466.6 L445.7,467.1 L447.9,467.8 L450.3,468.6 L452.9,469.6 L455.6,470.7 L458.6,471.9 L461.7,473.2 L465.0,474.7 L468.4,476.3 L472.0,477.9 L475.7,479.7 L479.6,481.6 L483.5,483.6 L487.6,485.7 L491.8,487.9 L496.2,490.2 L500.6,492.5 L505.1,495.0 L509.7,497.5 L514.5,500.2 L519.3,502.9 L524.2,505.6 L529.1,508.5 L534.2,511.4 L539.3,514.4 L544.5,517.4 L549.8,520.5 L555.1,523.7 L560.4,526.9 L565.9,530.2 L571.3,533.5 L576.9,536.9 L582.4,540.3 L588.0,543.7 L593.7,547.2 L599.3,550.8 L605.0,554.3 L610.7,557.9 L616.5,561.6 L622.2,565.2 L628.0,568.9 L633.7,572.6 L639.5,576.3 L645.3,580.1 L651.0,583.8 L656.8,587.6 L662.5,591.4 L668.2,595.1 L673.9,598.9 L679.6,602.7 L685.3,606.5 L694.7,593.5 L689.3,589.3 L683.9,585.1 L678.5,580.8 L673.1,576.6 L667.6,572.4 L662.2,568.1 L656.7,563.9 L651.2,559.7 L645.7,555.5 L640.2,551.3 L634.8,547.2 L629.3,543.0 L623.8,538.9 L618.4,534.9 L613.0,530.8 L607.6,526.8 L602.2,522.8 L596.9,518.9 L591.6,515.0 L586.3,511.1 L581.0,507.3 L575.8,503.5 L570.7,499.8 L565.6,496.2 L560.6,492.6 L555.6,489.1 L550.6,485.6 L545.8,482.2 L541.0,478.9 L536.2,475.6 L531.6,472.5 L527.0,469.4 L522.5,466.3 L518.0,463.4 L513.7,460.6 L509.4,457.8 L505.3,455.1 L501.2,452.5 L497.2,450.1 L493.3,447.7 L489.5,445.4 L485.8,443.2 L482.2,441.1 L478.7,439.2 L475.3,437.3 L472.0,435.5 L468.8,433.9 L465.7,432.4 L462.7,430.9 L459.7,429.6 L456.8,428.5 L454.0,427.4 L451.1,426.5 L448.3,425.7 L445.3,425.0 L442.1,424.6 L438.6,424.4 L434.6,424.7 L430.0,425.8 L427.0,427.0Z"/><circle cx="436.0" cy="446.0" r="21.0"/><circle cx="690.0" cy="600.0" r="8.0"/></g>
  </g>
</svg>